<svg width="156" height="51" viewBox="0 0 156 51" fill="none" xmlns="http://www.w3.org/2000/svg">
<path d="M154.691 17.0914C153.809 15.9972 152.42 15.1154 150.529 14.4849C149.562 14.1902 148.427 13.8956 147.038 13.6442C145.651 13.3929 143.717 13.1394 141.151 12.8447C136.989 12.3832 134.298 11.8784 133.122 11.3736C131.902 10.8687 131.315 10.0692 131.315 8.93608C131.315 7.63175 132.071 6.62425 133.585 5.82475C135.1 5.06859 137.158 4.68943 139.808 4.68943C142.458 4.68943 144.77 5.10976 146.787 5.99375C148.804 6.87775 150.36 8.09541 151.454 9.73557L155.321 6.49859C154.06 4.52259 152.041 2.96693 149.268 1.79044C146.451 0.613942 143.381 0.0246124 140.018 0.0246124C135.897 0.0246124 132.576 0.906442 130.054 2.6311C127.488 4.39693 126.227 6.66758 126.227 9.48424C126.227 11.7961 127.152 13.5619 128.959 14.7817C130.766 16.0015 134.216 16.9267 139.388 17.5139C141.615 17.7652 143.129 17.9342 143.929 18.0599C144.728 18.1855 145.443 18.27 145.989 18.3545C147.796 18.6492 149.06 19.0695 149.731 19.5744C150.403 20.1204 150.741 20.9199 150.741 21.9707C150.741 23.275 149.859 24.367 148.134 25.2077C146.41 26.0483 144.141 26.4687 141.407 26.4687C138.673 26.4687 135.94 25.9227 133.629 24.7873C131.317 23.652 129.423 22.0552 127.995 19.9102L124.158 23.4548L112.482 0.486112H106.554L93.5671 25.966H71.1119L93.3114 4.65043V0.48828H34.7033V5.19642H56.6927L34.543 26.5055L21.3156 0.486112H15.3876L0 30.6741H5.76113L9.58746 23.106H27.12L30.9464 30.6741H96.9297L100.756 23.106H118.289L122.115 30.6741H127.833L124.366 23.8557C125.772 25.9942 128.002 27.721 130.983 29.034C134.136 30.4206 137.542 31.1356 141.283 31.1356C145.699 31.1356 149.272 30.2538 151.963 28.4858C154.654 26.72 155.999 24.3237 155.999 21.338C155.999 19.6134 155.579 18.1855 154.695 17.0914H154.691ZM11.9773 18.3935L18.3689 5.77925L24.7606 18.3935H11.9794H11.9773ZM64.1504 25.9617H42.057L63.6867 5.19209H85.739L64.1504 25.9617ZM103.146 18.3935L109.538 5.77925L115.929 18.3935H103.148H103.146Z" fill="#1C2B38"/>
<path d="M54.8261 46.7356C56.7522 45.6783 58.0002 44.7921 58.6069 44.0988C59.2135 43.4228 59.5082 42.6428 59.5082 41.7913C59.5082 40.5953 59.0229 39.6225 58.0349 38.8598C57.0469 38.1145 55.7621 37.7331 54.2194 37.7331C52.5554 37.7331 51.1492 38.1491 50.0052 38.9638C48.8613 39.7958 48.1506 40.89 47.8711 42.242L49.3791 42.6926C49.5697 41.6353 50.0898 40.7838 50.9737 40.1425C51.8404 39.5011 52.8999 39.1718 54.1479 39.1718C55.2226 39.1718 56.1087 39.4145 56.8194 39.8998C57.5127 40.4025 57.8594 41.0265 57.8594 41.8086C57.8594 42.294 57.738 42.7273 57.4954 43.0913C57.2527 43.4726 56.8541 43.8713 56.2821 44.2699C56.0741 44.4086 55.8314 44.5646 55.5541 44.7379C55.2594 44.9113 54.6354 45.2753 53.6474 45.8126L47.9404 49.0041V50.3734H59.8722V48.9174H50.8177L54.8239 46.7313L54.8261 46.7356Z" fill="#1C2B38"/>
<path d="M71.0509 37.8545H69.8203C69.7509 38.5998 69.5603 39.1198 69.2309 39.4145C68.9016 39.7091 68.3643 39.8825 67.5843 39.8998L64.4101 40.0038V41.2518H69.4043V48.9868H64.252V50.3734H75.6637V48.9868H71.0509V37.8523V37.8545Z" fill="#1C2B38"/>
<path d="M89.862 43.0935C88.77 42.3135 87.3292 41.9321 85.5785 41.9321C84.7638 41.9321 84.0012 42.0361 83.2537 42.2268C82.5084 42.4348 81.867 42.7121 81.3449 43.0588L81.8302 39.3126H90.5358V37.8567H80.58L79.8 44.257L81.048 44.6903C81.5854 44.257 82.2094 43.9276 82.9569 43.685C83.7022 43.4596 84.4822 43.3383 85.299 43.3383C86.651 43.3383 87.7452 43.5983 88.5772 44.1183C89.3918 44.6383 89.8078 45.3316 89.8078 46.2005C89.8078 47.0693 89.4092 47.7778 88.5945 48.2999C87.7798 48.8199 86.6878 49.0799 85.351 49.0799C84.0142 49.0799 82.9742 48.8026 82.0729 48.2653C81.1715 47.7279 80.5649 46.9653 80.2529 46.0098L78.7969 46.6511C79.1262 47.8124 79.8715 48.7506 81.0697 49.4439C82.2657 50.1546 83.6892 50.5013 85.3358 50.5013C87.1385 50.5013 88.614 50.1026 89.7753 49.2879C90.9193 48.4906 91.4913 47.4506 91.4913 46.1831C91.4913 44.9156 90.954 43.8756 89.862 43.0956V43.0935Z" fill="#1C2B38"/>
<path d="M104.607 45.6783V37.8567H102.421L94.4434 45.765V47.065H103.01V50.3778H104.605V47.065H108.126V45.6783H104.605H104.607ZM103.01 45.6783H96.4193L103.01 39.2087V45.6783Z" fill="#1C2B38"/>
</svg>
